<svg width="70" height="70" viewBox="0 0 70 70" fill="none" xmlns="http://www.w3.org/2000/svg">
<path d="M35 64.1667C51.1083 64.1667 64.1667 51.1083 64.1667 35C64.1667 18.8917 51.1083 5.83333 35 5.83333C18.8917 5.83333 5.83333 18.8917 5.83333 35C5.83333 51.1083 18.8917 64.1667 35 64.1667Z" stroke="#FC5113" stroke-width="6" stroke-linecap="round" stroke-linejoin="round"/>
<path d="M23.3333 49.5833C25.9937 46.0413 30.2292 43.75 35 43.75C39.7708 43.75 44.0064 46.0413 46.6667 49.5833" stroke="#FC5113" stroke-width="6" stroke-linecap="round" stroke-linejoin="round"/>
<path d="M20.4167 26.2811C20.4167 26.2811 24.5275 25.9099 26.8213 27.7316M26.8213 27.7316L26.0539 30.1662C25.7511 31.1264 26.5426 32.0833 27.6395 32.0833C28.7923 32.0833 29.5537 31.0432 28.9601 30.1432C28.4339 29.3452 27.7174 28.4432 26.8213 27.7316ZM49.5833 26.2811C49.5833 26.2811 45.4726 25.9099 43.1786 27.7316M43.1786 27.7316L43.946 30.1662C44.2488 31.1264 43.4575 32.0833 42.3605 32.0833C41.2075 32.0833 40.4463 31.0432 41.0398 30.1432C41.566 29.3452 42.2826 28.4432 43.1786 27.7316Z" stroke="#FC5113" stroke-width="6" stroke-linecap="round" stroke-linejoin="round"/>
</svg>
