<svg width="70" height="70" viewBox="0 0 70 70" fill="none" xmlns="http://www.w3.org/2000/svg">
<path d="M5.83333 32.0833C7.30395 17.3445 19.801 5.83333 35 5.83333C50.199 5.83333 62.6961 17.3445 64.1667 32.0833M55.4167 55.9277C50.1387 61.0269 42.9377 64.1667 35 64.1667C27.0622 64.1667 19.8614 61.0269 14.5833 55.9277" stroke="#00CB5B" stroke-width="6" stroke-linecap="round" stroke-linejoin="round"/>
<path d="M35 52.5C40.5306 52.5 45.176 48.7672 46.4806 43.7205C47.0875 41.3723 46.2064 40.8333 43.8845 40.8333H26.1154C23.7935 40.8333 22.9125 41.3723 23.5194 43.7205C24.824 48.7672 29.4694 52.5 35 52.5Z" stroke="#00CB5B" stroke-width="6" stroke-linecap="round" stroke-linejoin="round"/>
<path d="M20.4167 27.7083C20.4167 25.2921 22.3754 23.3333 24.7917 23.3333C27.2079 23.3333 29.1667 25.2921 29.1667 27.7083M40.8333 27.7083C40.8333 25.2921 42.7922 23.3333 45.2083 23.3333C47.6245 23.3333 49.5833 25.2921 49.5833 27.7083" stroke="#00CB5B" stroke-width="6" stroke-linecap="round" stroke-linejoin="round"/>
<path d="M17.5 35C12.9632 36.1623 4.49467 38.5986 6.01315 46.0308C6.79621 49.7061 10.8982 50.3854 13.125 48.7317C18.4864 44.7504 13.125 40.8333 17.5 35Z" stroke="#00CB5B" stroke-width="6" stroke-linejoin="round"/>
<path d="M52.5 35C57.0369 36.1623 65.5054 38.5986 63.9867 46.0308C63.2039 49.7061 59.1019 50.3854 56.875 48.7317C51.5136 44.7504 56.875 40.8333 52.5 35Z" stroke="#00CB5B" stroke-width="6" stroke-linejoin="round"/>
</svg>
