<svg width="120" height="120" viewBox="0 0 120 120" fill="none" xmlns="http://www.w3.org/2000/svg">
<path d="M59.9999 0C26.8499 0 0 26.85 0 59.9999C0 93.1498 26.8499 120 59.9999 120C93.1498 120 120 93.1498 120 59.9999C120 26.85 93.1498 0 59.9999 0Z" fill="url(#paint0_radial_53_78)"/>
<path d="M90.2999 55.0501C94.3499 57.9001 93.5999 63.9001 89.2499 66.1501C91.4999 69.9001 88.6499 74.8501 84.7499 75.9001C85.3499 76.9501 85.6499 77.8501 85.4999 78.9C84.8999 83.25 80.0999 84 76.4999 84H56.8499C49.05 84 45.15 79.65 45.15 76.0501V57.6001C45.15 47.8501 56.0999 39.6001 56.0999 32.7001L55.1999 24.3002C55.1999 23.8502 55.1999 22.5002 55.6499 22.2002C56.2499 21.6002 58.0499 20.5502 60.5999 20.5502C62.2499 20.5502 63.4499 20.8502 64.7999 21.6002C69.2999 23.8502 69.8999 29.4002 69.8999 33.9001C69.8999 36.0001 67.1999 42.4501 66.8999 44.7001C70.3499 43.5001 78.4499 42.1501 84.7499 43.0501C92.0999 44.1001 94.1999 49.0501 90.2999 55.0501ZM28.65 48.0001H34.95C36.15 48.0001 37.35 48.4501 38.25 49.3501C39.15 50.2501 39.6 51.4501 39.6 52.6501V82.8C39.6 84 39.15 85.2 38.25 86.1C37.35 87 36.15 87.45 34.95 87.45H28.65C27.45 87.45 26.25 87 25.35 86.1C24.45 85.2 24 84 24 82.8V52.6501C24 51.4501 24.45 50.2501 25.35 49.3501C26.25 48.4501 27.45 48.0001 28.65 48.0001Z" fill="white"/>
<defs>
<radialGradient id="paint0_radial_53_78" cx="0" cy="0" r="1" gradientUnits="userSpaceOnUse" gradientTransform="translate(41.8938 37.318) rotate(77.6772) scale(84.6968 84.6968)">
<stop stop-color="#18AFFF"/>
<stop offset="1" stop-color="#0062DF"/>
</radialGradient>
</defs>
</svg>
