<svg width="70" height="70" viewBox="0 0 70 70" fill="none" xmlns="http://www.w3.org/2000/svg">
<path d="M5.83333 36.4583C5.83333 33.2366 8.445 30.625 11.6667 30.625C16.4991 30.625 20.4167 34.5424 20.4167 39.375V51.0417C20.4167 55.8743 16.4991 59.7917 11.6667 59.7917C8.445 59.7917 5.83333 57.1801 5.83333 53.9583V36.4583Z" stroke="#FCB813" stroke-width="6" stroke-linecap="round" stroke-linejoin="round"/>
<path d="M45.1462 22.7683L44.3695 25.2768C43.7331 27.3324 43.4149 28.3602 43.6596 29.1719C43.8576 29.8285 44.2922 30.3946 44.8846 30.767C45.6167 31.2273 46.7241 31.2273 48.939 31.2273H50.1174C57.6135 31.2273 61.3614 31.2273 63.1318 33.4463C63.334 33.6997 63.5139 33.9695 63.6697 34.2525C65.0315 36.727 63.4833 40.0607 60.3867 46.7282C57.545 52.8468 56.124 55.9061 53.4858 57.7068C53.2306 57.881 52.9681 58.0454 52.6992 58.1994C49.9217 59.7917 46.4806 59.7917 39.5978 59.7917H38.1051C29.7666 59.7917 25.5975 59.7917 23.0071 57.2819C20.4167 54.7718 20.4167 50.7322 20.4167 42.653V39.8134C20.4167 35.5676 20.4167 33.4448 21.1702 31.5017C21.9237 29.5587 23.3664 27.961 26.252 24.7658L38.1853 11.5516C38.4845 11.2202 38.6342 11.0545 38.7663 10.9397C39.9977 9.8679 41.8985 9.98853 42.9753 11.2069C43.0908 11.3374 43.2168 11.5206 43.4688 11.887C43.8632 12.4601 44.0603 12.7467 44.2324 13.0306C45.7707 15.5725 46.2362 18.5919 45.5315 21.4584C45.4528 21.7785 45.3507 22.1086 45.1462 22.7683Z" stroke="#FCB813" stroke-width="6" stroke-linecap="round" stroke-linejoin="round"/>
</svg>
