<svg width="473" height="112" viewBox="0 0 473 112" fill="none" xmlns="http://www.w3.org/2000/svg">
<path d="M161.495 67.5678C161.495 68.1201 161.943 68.5678 162.495 68.5678H182.089C182.641 68.5678 183.089 69.0155 183.089 69.5678V74.2694C183.089 74.8217 182.641 75.2694 182.089 75.2694H154.354C153.802 75.2694 153.354 74.8217 153.354 74.2694V36.5139C153.354 35.9616 153.802 35.5139 154.354 35.5139H181.28C181.832 35.5139 182.28 35.9616 182.28 36.5139V41.2155C182.28 41.7678 181.832 42.2155 181.28 42.2155H162.495C161.943 42.2155 161.495 42.6632 161.495 43.2155V51.0408C161.495 51.5931 161.943 52.0408 162.495 52.0408H175.218C175.77 52.0408 176.218 52.4885 176.218 53.0408V57.7425C176.218 58.2947 175.77 58.7425 175.218 58.7425H162.495C161.943 58.7425 161.495 59.1902 161.495 59.7425V67.5678Z" fill="white"/>
<path d="M366.536 35.5139C367.088 35.5139 367.536 35.9616 367.536 36.5139V41.2155C367.536 41.7678 367.088 42.2155 366.536 42.2155H354.275C353.723 42.2155 353.275 42.6632 353.275 43.2155V74.2694C353.275 74.8217 352.827 75.2694 352.275 75.2694H346.076C345.524 75.2694 345.076 74.8217 345.076 74.2694V43.2155C345.076 42.6632 344.629 42.2155 344.076 42.2155H331.873C331.321 42.2155 330.873 41.7678 330.873 41.2155V36.5139C330.873 35.9616 331.321 35.5139 331.873 35.5139H366.536Z" fill="white"/>
<path d="M378.005 67.5678C378.005 68.1201 378.453 68.5678 379.005 68.5678H398.598C399.151 68.5678 399.598 69.0155 399.598 69.5678V74.2694C399.598 74.8217 399.151 75.2694 398.598 75.2694H370.864C370.312 75.2694 369.864 74.8217 369.864 74.2694V36.5139C369.864 35.9616 370.312 35.5139 370.864 35.5139H397.79C398.342 35.5139 398.79 35.9616 398.79 36.5139V41.2155C398.79 41.7678 398.342 42.2155 397.79 42.2155H379.005C378.453 42.2155 378.005 42.6632 378.005 43.2155V51.0408C378.005 51.5931 378.453 52.0408 379.005 52.0408H391.728C392.28 52.0408 392.728 52.4885 392.728 53.0408V57.7425C392.728 58.2947 392.28 58.7425 391.728 58.7425H379.005C378.453 58.7425 378.005 59.1902 378.005 59.7425V67.5678Z" fill="white"/>
<path d="M417.92 68.7381C418.882 68.7381 419.825 68.6056 420.749 68.3406C421.673 68.0377 422.539 67.6212 423.347 67.0911C424.155 66.5611 424.867 65.9174 425.483 65.1601C425.959 64.5465 426.354 63.8765 426.668 63.1501C426.837 62.7608 427.211 62.4908 427.635 62.4908H433.084C433.68 62.4908 434.147 63.0098 434.041 63.5961C433.743 65.2355 433.2 66.7224 432.412 68.0566C431.449 69.6847 430.218 71.0667 428.716 72.2026C427.254 73.3006 425.579 74.1525 423.693 74.7583C421.846 75.3262 419.883 75.6102 417.804 75.6102C414.879 75.6102 412.242 75.0801 409.895 74.02C407.585 72.9598 405.603 71.521 403.948 69.7036C402.331 67.8862 401.08 65.7659 400.195 63.3427C399.348 60.8817 398.925 58.2692 398.925 55.5052C398.925 52.7413 399.348 50.1288 400.195 47.6677C401.042 45.2066 402.273 43.0485 403.89 41.1932C405.507 39.338 407.489 37.8803 409.837 36.8201C412.185 35.7221 414.841 35.1731 417.804 35.1731C419.883 35.1731 421.846 35.4571 423.693 36.025C425.541 36.5551 427.196 37.388 428.659 38.5239C430.121 39.6219 431.334 40.985 432.296 42.6131C433.086 43.9491 433.655 45.4637 434.004 47.1567C434.127 47.7526 433.657 48.2924 433.049 48.2924H427.635C427.211 48.2924 426.837 48.0223 426.667 47.6336C426.353 46.9149 425.958 46.2636 425.483 45.6799C424.867 44.8848 424.155 44.2222 423.347 43.6921C422.539 43.1621 421.673 42.7645 420.749 42.4995C419.825 42.1966 418.882 42.0451 417.92 42.0451C416.072 42.0451 414.456 42.4238 413.07 43.181C411.684 43.9004 410.53 44.8848 409.606 46.1343C408.682 47.3459 407.97 48.7468 407.47 50.337C407.008 51.9272 406.777 53.5932 406.777 55.3348C406.777 57.0387 407.008 58.7046 407.47 60.3327C407.97 61.9229 408.682 63.3427 409.606 64.5922C410.53 65.8417 411.684 66.845 413.07 67.6023C414.456 68.3595 416.072 68.7381 417.92 68.7381Z" fill="white"/>
<path d="M464.801 36.5139C464.801 35.9616 465.249 35.5139 465.801 35.5139H472C472.552 35.5139 473 35.9616 473 36.5139V74.2694C473 74.8217 472.552 75.2694 472 75.2694H465.801C465.249 75.2694 464.801 74.8217 464.801 74.2694V59.7425C464.801 59.1902 464.354 58.7425 463.801 58.7425H447.326C446.774 58.7425 446.326 59.1902 446.326 59.7425V74.2694C446.326 74.8217 445.878 75.2694 445.326 75.2694H439.185C438.633 75.2694 438.185 74.8217 438.185 74.2694V36.5139C438.185 35.9616 438.633 35.5139 439.185 35.5139H445.326C445.878 35.5139 446.326 35.9616 446.326 36.5139V51.0408C446.326 51.5931 446.774 52.0408 447.326 52.0408H463.801C464.354 52.0408 464.801 51.5931 464.801 51.0408V36.5139Z" fill="white"/>
<path d="M220.271 35.5139C220.824 35.5139 221.271 35.9616 221.271 36.5139V41.2155C221.271 41.7678 220.824 42.2155 220.271 42.2155H208.01C207.458 42.2155 207.01 42.6632 207.01 43.2155V74.2694C207.01 74.8217 206.563 75.2694 206.01 75.2694H199.812C199.26 75.2694 198.812 74.8217 198.812 74.2694V43.2155C198.812 42.6632 198.364 42.2155 197.812 42.2155H185.609C185.057 42.2155 184.609 41.7678 184.609 41.2155V36.5139C184.609 35.9616 185.057 35.5139 185.609 35.5139H220.271Z" fill="white"/>
<path d="M250.216 36.5139C250.216 35.9616 250.664 35.5139 251.216 35.5139H257.415C257.967 35.5139 258.415 35.9616 258.415 36.5139V74.2694C258.415 74.8217 257.967 75.2694 257.415 75.2694H251.216C250.664 75.2694 250.216 74.8217 250.216 74.2694V59.7425C250.216 59.1902 249.768 58.7425 249.216 58.7425H232.741C232.188 58.7425 231.741 59.1902 231.741 59.7425V74.2694C231.741 74.8217 231.293 75.2694 230.741 75.2694H224.6C224.048 75.2694 223.6 74.8217 223.6 74.2694V36.5139C223.6 35.9616 224.048 35.5139 224.6 35.5139H230.741C231.293 35.5139 231.741 35.9616 231.741 36.5139V51.0408C231.741 51.5931 232.188 52.0408 232.741 52.0408H249.216C249.768 52.0408 250.216 51.5931 250.216 51.0408V36.5139Z" fill="white"/>
<path d="M311.42 73.7708C311.804 74.4375 311.323 75.2694 310.554 75.2694H304.551C304.191 75.2694 303.859 75.0756 303.681 74.7619L294.902 59.2499C294.725 58.9363 294.392 58.7425 294.032 58.7425H287.532C286.98 58.7425 286.532 58.2947 286.532 57.7425V53.0408C286.532 52.4885 286.98 52.0408 287.532 52.0408H297.386C299.195 52.0408 300.562 51.5297 301.486 50.5074C302.448 49.4851 302.948 48.3682 302.987 47.1566C303.025 45.9071 302.583 44.7712 301.659 43.7489C300.735 42.7267 299.311 42.2155 297.386 42.2155H270.269C269.717 42.2155 269.269 42.6632 269.269 43.2155V51.0408C269.269 51.5931 269.717 52.0408 270.269 52.0408H280.105C280.657 52.0408 281.105 52.4885 281.105 53.0408V57.7425C281.105 58.2947 280.657 58.7425 280.105 58.7425H270.269C269.717 58.7425 269.269 59.1902 269.269 59.7425V67.5678C269.269 68.1201 269.717 68.5678 270.269 68.5678H288.477C289.029 68.5678 289.477 69.0155 289.477 69.5678V74.2694C289.477 74.8217 289.029 75.2694 288.477 75.2694H262.128C261.576 75.2694 261.128 74.8217 261.128 74.2694V36.5139C261.128 35.9616 261.576 35.5139 262.128 35.5139H297.386C300.158 35.5139 302.506 35.9871 304.43 36.9337C306.393 37.8803 307.914 39.0919 308.991 40.5685C310.108 42.0451 310.8 43.6732 311.07 45.4527C311.339 47.2323 311.185 48.955 310.608 50.621C310.069 52.2491 309.107 53.7446 307.721 55.1077C306.604 56.1762 305.224 57.0108 303.581 57.6116C302.967 57.8361 302.669 58.5564 302.995 59.1231L311.42 73.7708Z" fill="white"/>
<path d="M108.317 27.5549C106.312 26.6599 104.244 25.6681 102.114 24.5795C93.6942 20.2761 83.5209 20.2761 75.0794 23.7812C65.1041 27.9274 58.3799 35.1797 54.9066 45.5379C52.7546 51.9531 54.2255 58.3466 53.356 64.8634C52.1097 74.1814 47.3346 81.4482 39.0307 86.6636C26.1764 94.7479 13.2351 102.876 0.206912 111.047C0.139283 111.091 0.0789003 111.079 0.0257633 111.011C-0.0128818 110.953 -0.00805087 110.902 0.0402555 110.859C13.6627 98.8554 28.3357 83.0786 31.6109 64.8852C32.2558 61.3075 31.9877 57.8168 32.1253 54.2101C32.9876 31.0238 47.3563 11.2628 68.9348 3.38169C83.5354 -1.95224 99.991 -1.01608 114.099 6.47319C122.403 10.8855 132.714 11.6257 142.257 10.3194C153.353 8.80028 164.386 5.62411 175.356 0.79092C175.438 0.757054 175.501 0.778828 175.545 0.856236L175.631 1.02315C175.636 1.03282 175.634 1.04008 175.624 1.04492C164.581 7.89557 152.927 15.2131 140.663 22.9975C135.59 26.2148 131.525 28.2637 128.468 29.1442C121.734 31.0843 115.017 30.5545 108.317 27.5549Z" fill="white"/>
<path d="M149.872 22.5589C142.264 27.3156 134.646 32.0663 127.028 36.8129C120.428 40.925 118.35 49.4108 118.35 57.187C118.35 74.8877 103.883 89.2333 86.0309 89.2333C82.8975 89.2333 79.8689 88.7907 77.0047 87.9654C66.5164 84.9434 54.4137 82.0656 45.1508 87.8394C39.1532 91.5778 33.1539 95.318 27.1488 99.0639C27.0732 99.1015 27.0843 99.2132 27.1165 99.2913C27.1233 99.3077 27.1317 99.3239 27.1418 99.3401C27.1657 99.3758 27.2177 99.3458 27.2577 99.3301C35.1789 96.2255 43.1345 96.0264 51.1247 98.7464C55.4039 100.203 59.6692 102.005 63.8374 103.765C78.0135 109.751 94.1316 109.185 107.531 102.764C120.57 96.5165 129.648 86.6099 134.767 73.0583C136.632 68.1222 137.693 63.2898 137.943 58.547C138.172 54.3635 138.442 50.2766 138.761 46.2863C139.51 36.9182 143.207 29.1448 149.851 22.9524C149.92 22.8843 149.915 22.7777 149.944 22.6858C149.95 22.6681 149.956 22.6511 149.962 22.6348C149.983 22.5796 149.921 22.5243 149.872 22.5589Z" fill="white"/>
</svg>
